<?xml version="1.0" standalone="no"?><!DOCTYPE svg PUBLIC "-//W3C//DTD SVG 1.1//EN" "http://www.w3.org/Graphics/SVG/1.1/DTD/svg11.dtd"><svg class="icon" width="200px" height="200.00px" viewBox="0 0 1024 1024" version="1.1" xmlns="http://www.w3.org/2000/svg"><path fill="#bfbfbf" d="M799.7 263.5L698.3 162.2c-14.4-14.4-14.4-37.8 0-52.2 14.4-14.4 37.8-14.4 52.2 0L915 274.4c23.3 23.3 6.8 63.1-26.1 63.1H729.4c-34.8 0-67.2 17.4-86.5 46.3l-21.4 32c-11.3 17-34.2 21.6-51.2 10.3s-21.6-34.2-10.3-51.2l21.4-32c33-49.5 88.5-79.2 148-79.2l70.3-0.2z m-396 346c11.3-17 34.2-21.6 51.2-10.3s21.6 34.3 10.3 51.2l-67.3 101c-33 49.5-88.5 79.2-148 79.2H135.1c-20.4 0-36.9-16.5-36.9-37 0-20.4 16.5-36.9 36.9-36.9h114.8c34.8 0 67.2-17.4 86.5-46.3l67.3-100.9z m321.5 151c-56.8 0-109.9-28.4-141.4-75.7L334.1 310c-8.8-13.2-20.7-24-34.6-31.4-13.9-7.5-29.5-11.4-45.3-11.4h-119c-20.4 0-36.9-16.5-36.9-36.9s16.5-36.9 36.9-36.9h119c56.8 0 109.9 28.4 141.4 75.7l249.7 374.8c8.8 13.2 20.7 24 34.6 31.4 13.9 7.5 29.5 11.4 45.3 11.4h163.6c32.9 0 49.4 39.8 26.1 63.1L750.6 914.1c-14.4 14.4-37.8 14.4-52.2 0-14.4-14.4-14.4-37.8 0-52.2l101.3-101.3h-74.5z" /></svg>