<?xml version="1.0" standalone="no"?><!DOCTYPE svg PUBLIC "-//W3C//DTD SVG 1.1//EN" "http://www.w3.org/Graphics/SVG/1.1/DTD/svg11.dtd"><svg class="icon" width="200px" height="200.00px" viewBox="0 0 1024 1024" version="1.1" xmlns="http://www.w3.org/2000/svg"><path fill="#ffffff" d="M938.666667 640H469.333333a85.333333 85.333333 0 0 1-85.333333-85.333333V85.333333a85.333333 85.333333 0 0 1 85.333333-85.333333h469.333334a85.333333 85.333333 0 0 1 85.333333 85.333333v469.333334a85.333333 85.333333 0 0 1-85.333333 85.333333z m0-554.666667H469.333333v469.333334h469.333334V85.333333zM85.333333 938.666667h469.333334v-213.333334h85.333333v213.333334a85.333333 85.333333 0 0 1-85.333333 85.333333H85.333333a85.333333 85.333333 0 0 1-85.333333-85.333333V469.333333a85.333333 85.333333 0 0 1 85.333333-85.333333h213.333334v85.333333H85.333333v469.333334z" /></svg>