<?xml version="1.0" standalone="no"?><!DOCTYPE svg PUBLIC "-//W3C//DTD SVG 1.1//EN" "http://www.w3.org/Graphics/SVG/1.1/DTD/svg11.dtd"><svg class="icon" width="200px" height="200.00px" viewBox="0 0 1024 1024" version="1.1" xmlns="http://www.w3.org/2000/svg"><path fill="#ffffff" d="M880.94 960H512c-14.55 0-26.35-11.8-26.35-26.35s11.8-26.35 26.35-26.35h368.94c14.53 0 26.35-11.83 26.35-26.35V143.06c0-14.53-11.83-26.35-26.35-26.35H143.06c-14.53 0-26.35 11.82-26.35 26.35V512c0 14.55-11.8 26.35-26.35 26.35S64 526.55 64 512V143.06C64 99.46 99.46 64 143.06 64h737.88c43.6 0 79.06 35.46 79.06 79.06v737.88c0 43.6-35.46 79.06-79.06 79.06z"  /><path fill="#ffffff" d="M353.88 960H143.06C99.46 960 64 924.54 64 880.94V670.12c0-43.6 35.46-79.06 79.06-79.06h210.82c43.6 0 79.06 35.46 79.06 79.06v210.82c0 43.6-35.46 79.06-79.06 79.06zM143.06 643.76c-14.53 0-26.35 11.83-26.35 26.35v210.82c0 14.53 11.82 26.35 26.35 26.35h210.82c14.53 0 26.35-11.83 26.35-26.35V670.12c0-14.53-11.82-26.35-26.35-26.35H143.06zM801.88 564.71c-14.55 0-26.35-11.8-26.35-26.35V248.47H485.65c-14.55 0-26.35-11.8-26.35-26.35s11.8-26.35 26.35-26.35h303.06c21.8 0 39.53 17.73 39.53 39.53v303.06c0 14.55-11.8 26.35-26.36 26.35z m-13.17-316.24h0.13-0.13z"  /><path fill="#ffffff" d="M485.65 564.71c-6.74 0-13.49-2.57-18.63-7.72-10.29-10.29-10.29-26.97 0-37.26l308.27-308.26c10.29-10.29 26.97-10.29 37.26 0s10.29 26.98 0 37.26L504.28 556.99a26.284 26.284 0 0 1-18.63 7.72z"  /></svg>